# xmcd CD database file
#
# Track frame offsets:
#	150
#	124855
#	134072
#	145490
#	170982
#	211855
#	219730
#	247155
#	278825
#
# Disc length: 3943 seconds
#
# Revision: 2
# Processed by: cddbd v1.4b41PL1 Copyright (c) Steve Scherf et al.
# Submitted via: Feurio! 1.60 - http://www.feurio.com
#
DISCID=960f6509,9f0f6509
DTITLE=Mike Oldfield - Tubular Bells
DYEAR=1900
DGENRE=
TTITLE0=Tubular Bells (Part I)
TTITLE1=Tubular Demo Bit (Part I)
TTITLE2=Tubular Demo Bit (Part II)
TTITLE3=Don Alfonso
TTITLE4=Tubular Bells (Part II)
TTITLE5=The Sailor's Hornpipe
TTITLE6=Tubular Bells (Part III)
TTITLE7=Some Gaelic Tunes--A--Duet
TTITLE8=Don Alfonso (German Version)
EXTD=
EXTT0=
EXTT1=
EXTT2=
EXTT3=
EXTT4=
EXTT5=
EXTT6=
EXTT7=
EXTT8=
PLAYORDER=
